<mxfile host="app.diagrams.net" modified="2021-03-13T02:01:32.617Z" agent="5.0 (Windows NT 10.0; Win64; x64) AppleWebKit/537.36 (KHTML, like Gecko) Chrome/88.0.4324.182 Safari/537.36 OPR/74.0.3911.203" etag="tFdFPlgRf2EOVX7XnKhS" version="14.4.7" type="github">
  <diagram id="Rh4_9mQIcKR6ZL9h0nzi" name="Page-1">
    <mxGraphModel dx="967" dy="1701" grid="1" gridSize="10" guides="1" tooltips="1" connect="1" arrows="1" fold="1" page="1" pageScale="1" pageWidth="827" pageHeight="1169" math="0" shadow="0">
      <root>
        <mxCell id="0" />
        <mxCell id="1" parent="0" />
        <mxCell id="ZsBO5cZFyfEsSncGkevy-44" value="" style="aspect=fixed;perimeter=ellipsePerimeter;html=1;align=center;shadow=0;dashed=0;spacingTop=3;image;image=img/lib/active_directory/internet_cloud.svg;labelBackgroundColor=none;fontSize=11;" vertex="1" parent="1">
          <mxGeometry x="320" y="-20" width="90" height="56.7" as="geometry" />
        </mxCell>
        <mxCell id="ZsBO5cZFyfEsSncGkevy-39" value="" style="shape=mxgraph.mockup.containers.marginRect;rectMarginTop=10;strokeColor=#666666;strokeWidth=1;dashed=0;rounded=1;arcSize=5;recursiveResize=0;labelBackgroundColor=none;fontSize=11;labelBorderColor=#004C99;" vertex="1" parent="1">
          <mxGeometry x="380" y="30" width="460" height="340" as="geometry" />
        </mxCell>
        <mxCell id="ZsBO5cZFyfEsSncGkevy-40" value="Cloud" style="shape=rect;strokeColor=none;fillColor=#008cff;strokeWidth=1;dashed=0;rounded=1;arcSize=20;fontColor=#ffffff;fontSize=17;spacing=2;spacingTop=-2;align=left;autosize=1;spacingLeft=4;resizeWidth=0;resizeHeight=0;perimeter=none;" vertex="1" parent="ZsBO5cZFyfEsSncGkevy-39">
          <mxGeometry x="5" width="70" height="30" as="geometry" />
        </mxCell>
        <mxCell id="ZsBO5cZFyfEsSncGkevy-41" value="" style="shape=mxgraph.mockup.containers.marginRect;rectMarginTop=10;strokeColor=#666666;strokeWidth=1;dashed=0;rounded=1;arcSize=5;recursiveResize=0;labelBackgroundColor=none;fontSize=11;" vertex="1" parent="ZsBO5cZFyfEsSncGkevy-39">
          <mxGeometry x="160" y="70" width="290" height="260" as="geometry" />
        </mxCell>
        <mxCell id="ZsBO5cZFyfEsSncGkevy-42" value="Databricks" style="shape=rect;strokeColor=none;fillColor=#008cff;strokeWidth=1;dashed=0;rounded=1;arcSize=20;fontColor=#ffffff;fontSize=14;spacing=2;spacingTop=-2;align=left;autosize=1;spacingLeft=4;resizeWidth=0;resizeHeight=0;perimeter=none;" vertex="1" parent="ZsBO5cZFyfEsSncGkevy-41">
          <mxGeometry x="5" y="5" width="90" height="20" as="geometry" />
        </mxCell>
        <mxCell id="ZsBO5cZFyfEsSncGkevy-2" value="" style="aspect=fixed;html=1;points=[];align=center;image;fontSize=12;image=img/lib/mscae/Databricks.svg;" vertex="1" parent="1">
          <mxGeometry x="525" y="56" width="50" height="48" as="geometry" />
        </mxCell>
        <mxCell id="ZsBO5cZFyfEsSncGkevy-3" value="" style="html=1;dashed=0;whitespace=wrap;fillColor=#2875E2;strokeColor=#ffffff;points=[[0.005,0.63,0],[0.1,0.2,0],[0.9,0.2,0],[0.5,0,0],[0.995,0.63,0],[0.72,0.99,0],[0.5,1,0],[0.28,0.99,0]];shape=mxgraph.kubernetes.icon;prIcon=api" vertex="1" parent="1">
          <mxGeometry x="30" y="20" width="70" height="78" as="geometry" />
        </mxCell>
        <mxCell id="ZsBO5cZFyfEsSncGkevy-6" value="" style="verticalLabelPosition=bottom;html=1;verticalAlign=top;align=center;strokeColor=none;fillColor=#00BEF2;shape=mxgraph.azure.sql_database_sql_azure;" vertex="1" parent="1">
          <mxGeometry x="406.5" y="126" width="47.5" height="50" as="geometry" />
        </mxCell>
        <mxCell id="ZsBO5cZFyfEsSncGkevy-8" value="" style="shape=image;html=1;verticalAlign=top;verticalLabelPosition=bottom;labelBackgroundColor=#ffffff;imageAspect=0;aspect=fixed;image=https://cdn2.iconfinder.com/data/icons/oxygen/64x64/mimetypes/text-x-python.png" vertex="1" parent="1">
          <mxGeometry x="210" y="107" width="64" height="64" as="geometry" />
        </mxCell>
        <mxCell id="ZsBO5cZFyfEsSncGkevy-9" value="" style="endArrow=classic;html=1;" edge="1" parent="1" source="ZsBO5cZFyfEsSncGkevy-3" target="ZsBO5cZFyfEsSncGkevy-8">
          <mxGeometry width="50" height="50" relative="1" as="geometry">
            <mxPoint x="130" y="191" as="sourcePoint" />
            <mxPoint x="180" y="141" as="targetPoint" />
            <Array as="points">
              <mxPoint x="140" y="139" />
            </Array>
          </mxGeometry>
        </mxCell>
        <mxCell id="ZsBO5cZFyfEsSncGkevy-10" value="API de Dados Covid&lt;br&gt;" style="text;html=1;strokeColor=none;fillColor=none;align=center;verticalAlign=middle;whiteSpace=wrap;rounded=0;" vertex="1" parent="1">
          <mxGeometry x="20" y="10.5" width="120" height="20" as="geometry" />
        </mxCell>
        <mxCell id="ZsBO5cZFyfEsSncGkevy-12" value="&lt;h1 style=&quot;font-size: 11px;&quot;&gt;Leitura/Ingestão&lt;/h1&gt;&lt;p style=&quot;font-size: 11px;&quot;&gt;Aplicação de leitura de dados da API para BD SQL Server na nuvem.&lt;/p&gt;" style="text;html=1;strokeColor=none;fillColor=none;spacing=5;spacingTop=-20;whiteSpace=wrap;overflow=hidden;rounded=0;fontSize=11;" vertex="1" parent="1">
          <mxGeometry x="190" y="180" width="130" height="80" as="geometry" />
        </mxCell>
        <mxCell id="ZsBO5cZFyfEsSncGkevy-13" value="" style="endArrow=classic;startArrow=classic;html=1;fontSize=11;" edge="1" parent="1" source="ZsBO5cZFyfEsSncGkevy-8">
          <mxGeometry width="50" height="50" relative="1" as="geometry">
            <mxPoint x="380" y="250" as="sourcePoint" />
            <mxPoint x="390" y="140" as="targetPoint" />
            <Array as="points">
              <mxPoint x="310" y="140" />
            </Array>
          </mxGeometry>
        </mxCell>
        <mxCell id="ZsBO5cZFyfEsSncGkevy-17" value="Azure SQL Server" style="text;html=1;strokeColor=none;fillColor=none;align=center;verticalAlign=middle;whiteSpace=wrap;rounded=0;labelBackgroundColor=#ffffff;fontSize=11;" vertex="1" parent="1">
          <mxGeometry x="363" y="106" width="150" height="20" as="geometry" />
        </mxCell>
        <mxCell id="ZsBO5cZFyfEsSncGkevy-19" value="" style="endArrow=classic;html=1;fontSize=11;exitX=0.874;exitY=0.5;exitDx=0;exitDy=0;exitPerimeter=0;" edge="1" parent="1" source="ZsBO5cZFyfEsSncGkevy-6">
          <mxGeometry width="50" height="50" relative="1" as="geometry">
            <mxPoint x="461.5" y="135" as="sourcePoint" />
            <mxPoint x="548" y="151" as="targetPoint" />
          </mxGeometry>
        </mxCell>
        <mxCell id="ZsBO5cZFyfEsSncGkevy-22" value="Python" style="text;html=1;strokeColor=none;fillColor=none;align=center;verticalAlign=middle;whiteSpace=wrap;rounded=0;labelBackgroundColor=none;fontSize=11;" vertex="1" parent="1">
          <mxGeometry x="220" y="88" width="40" height="20" as="geometry" />
        </mxCell>
        <mxCell id="ZsBO5cZFyfEsSncGkevy-23" value="" style="aspect=fixed;html=1;points=[];align=center;image;fontSize=12;image=img/lib/azure2/general/Files.svg;labelBackgroundColor=none;" vertex="1" parent="1">
          <mxGeometry x="746" y="126.77000000000001" width="37" height="40.46" as="geometry" />
        </mxCell>
        <mxCell id="ZsBO5cZFyfEsSncGkevy-24" value="" style="aspect=fixed;html=1;points=[];align=center;image;fontSize=12;image=img/lib/azure2/general/Files.svg;labelBackgroundColor=none;" vertex="1" parent="1">
          <mxGeometry x="746" y="198" width="37" height="40.5" as="geometry" />
        </mxCell>
        <mxCell id="ZsBO5cZFyfEsSncGkevy-25" value="Raw Tables&lt;br&gt;Json Files" style="text;html=1;strokeColor=none;fillColor=none;align=center;verticalAlign=middle;whiteSpace=wrap;rounded=0;labelBackgroundColor=none;fontSize=11;" vertex="1" parent="1">
          <mxGeometry x="737.5" y="168" width="71.5" height="20" as="geometry" />
        </mxCell>
        <mxCell id="ZsBO5cZFyfEsSncGkevy-26" value="Ready Tables&lt;br&gt;Parquet Files" style="text;html=1;strokeColor=none;fillColor=none;align=center;verticalAlign=middle;whiteSpace=wrap;rounded=0;labelBackgroundColor=none;fontSize=11;" vertex="1" parent="1">
          <mxGeometry x="742" y="240" width="71.5" height="20" as="geometry" />
        </mxCell>
        <mxCell id="ZsBO5cZFyfEsSncGkevy-27" value="" style="aspect=fixed;html=1;points=[];align=center;image;fontSize=12;image=img/lib/mscae/Databricks.svg;" vertex="1" parent="1">
          <mxGeometry x="648" y="120" width="45" height="43.2" as="geometry" />
        </mxCell>
        <mxCell id="ZsBO5cZFyfEsSncGkevy-28" value="" style="aspect=fixed;html=1;points=[];align=center;image;fontSize=12;image=img/lib/mscae/Databricks.svg;" vertex="1" parent="1">
          <mxGeometry x="648" y="200" width="45" height="43.2" as="geometry" />
        </mxCell>
        <mxCell id="ZsBO5cZFyfEsSncGkevy-29" value="" style="aspect=fixed;html=1;points=[];align=center;image;fontSize=12;image=img/lib/mscae/Databricks.svg;" vertex="1" parent="1">
          <mxGeometry x="648" y="280" width="45" height="43.2" as="geometry" />
        </mxCell>
        <mxCell id="ZsBO5cZFyfEsSncGkevy-30" value="" style="endArrow=classic;html=1;fontSize=11;exitX=1.009;exitY=0.568;exitDx=0;exitDy=0;exitPerimeter=0;" edge="1" parent="1" source="ZsBO5cZFyfEsSncGkevy-27" target="ZsBO5cZFyfEsSncGkevy-23">
          <mxGeometry width="50" height="50" relative="1" as="geometry">
            <mxPoint x="687.5" y="154" as="sourcePoint" />
            <mxPoint x="737.5" y="104" as="targetPoint" />
          </mxGeometry>
        </mxCell>
        <mxCell id="ZsBO5cZFyfEsSncGkevy-31" value="" style="endArrow=classic;html=1;fontSize=11;" edge="1" parent="1">
          <mxGeometry width="50" height="50" relative="1" as="geometry">
            <mxPoint x="688" y="223" as="sourcePoint" />
            <mxPoint x="747" y="223" as="targetPoint" />
          </mxGeometry>
        </mxCell>
        <mxCell id="ZsBO5cZFyfEsSncGkevy-32" value="" style="endArrow=classic;html=1;fontSize=11;" edge="1" parent="1" source="ZsBO5cZFyfEsSncGkevy-23" target="ZsBO5cZFyfEsSncGkevy-28">
          <mxGeometry width="50" height="50" relative="1" as="geometry">
            <mxPoint x="668" y="280" as="sourcePoint" />
            <mxPoint x="718" y="230" as="targetPoint" />
          </mxGeometry>
        </mxCell>
        <mxCell id="ZsBO5cZFyfEsSncGkevy-33" value="" style="endArrow=classic;html=1;fontSize=11;" edge="1" parent="1" source="ZsBO5cZFyfEsSncGkevy-24" target="ZsBO5cZFyfEsSncGkevy-29">
          <mxGeometry width="50" height="50" relative="1" as="geometry">
            <mxPoint x="737.5" y="270.001914893617" as="sourcePoint" />
            <mxPoint x="684.5" y="312.06361702127657" as="targetPoint" />
          </mxGeometry>
        </mxCell>
        <mxCell id="ZsBO5cZFyfEsSncGkevy-34" value="Visualização" style="text;html=1;strokeColor=none;fillColor=none;align=center;verticalAlign=middle;whiteSpace=wrap;rounded=0;labelBackgroundColor=none;fontSize=11;" vertex="1" parent="1">
          <mxGeometry x="639" y="260" width="62.5" height="20" as="geometry" />
        </mxCell>
        <mxCell id="ZsBO5cZFyfEsSncGkevy-35" value="Transformação" style="text;html=1;strokeColor=none;fillColor=none;align=center;verticalAlign=middle;whiteSpace=wrap;rounded=0;labelBackgroundColor=none;fontSize=11;" vertex="1" parent="1">
          <mxGeometry x="648" y="180" width="42.5" height="20" as="geometry" />
        </mxCell>
        <mxCell id="ZsBO5cZFyfEsSncGkevy-36" value="Ingestão" style="text;html=1;strokeColor=none;fillColor=none;align=center;verticalAlign=middle;whiteSpace=wrap;rounded=0;labelBackgroundColor=none;fontSize=11;" vertex="1" parent="1">
          <mxGeometry x="645.5" y="98" width="47.5" height="20" as="geometry" />
        </mxCell>
        <mxCell id="ZsBO5cZFyfEsSncGkevy-37" value="" style="shape=curlyBracket;whiteSpace=wrap;html=1;rounded=1;labelBackgroundColor=none;fontSize=11;" vertex="1" parent="1">
          <mxGeometry x="615" y="150" width="20" height="150" as="geometry" />
        </mxCell>
        <mxCell id="ZsBO5cZFyfEsSncGkevy-38" value="Notebooks" style="text;html=1;strokeColor=none;fillColor=none;align=center;verticalAlign=middle;whiteSpace=wrap;rounded=0;labelBackgroundColor=none;fontSize=11;" vertex="1" parent="1">
          <mxGeometry x="560" y="210" width="50" height="20" as="geometry" />
        </mxCell>
      </root>
    </mxGraphModel>
  </diagram>
</mxfile>
